<svg xmlns="http://www.w3.org/2000/svg" xmlns:xlink="http://www.w3.org/1999/xlink" width="500" zoomAndPan="magnify" viewBox="0 0 375 374.999991" height="500" preserveAspectRatio="xMidYMid meet" version="1.0"><defs><g/></defs><rect x="-37.5" width="450" fill="#ffffff" y="-37.499999" height="449.999989" fill-opacity="1"/><rect x="-37.5" width="450" fill="#ffffff" y="-37.499999" height="449.999989" fill-opacity="1"/><g fill="#000000" fill-opacity="1"><g transform="translate(168.59794, 221.028684)"><g><path d="M 106.796875 0 L 101.1875 -70.390625 L 100.46875 -70.390625 L 76.140625 -0.71875 L 60.015625 -0.71875 L 35.703125 -70.390625 L 34.984375 -70.390625 L 29.359375 0 L 2.296875 0 L 12.953125 -118.75 L 41.734375 -118.75 L 68.078125 -50.234375 L 94.421875 -118.75 L 123.203125 -118.75 L 133.859375 0 Z M 106.796875 0 "/></g></g></g><g fill="#000000" fill-opacity="1"><g transform="translate(86.604351, 221.028684)"><g><path d="M 8.640625 -118.75 L 51.09375 -118.75 C 62.507812 -118.75 71.816406 -115.703125 79.015625 -109.609375 C 86.210938 -103.515625 89.8125 -94.804688 89.8125 -83.484375 C 89.8125 -74.753906 87.628906 -67.4375 83.265625 -61.53125 C 78.898438 -55.632812 72.972656 -51.484375 65.484375 -49.078125 L 106.375 0 L 71.96875 0 L 35.703125 -46.921875 L 35.703125 0 L 8.640625 0 Z M 35.703125 -66.0625 L 38.859375 -66.0625 C 41.359375 -66.0625 43.46875 -66.109375 45.1875 -66.203125 C 46.914062 -66.304688 48.882812 -66.644531 51.09375 -67.21875 C 53.300781 -67.789062 55.078125 -68.601562 56.421875 -69.65625 C 57.765625 -70.71875 58.914062 -72.253906 59.875 -74.265625 C 60.832031 -76.285156 61.3125 -78.734375 61.3125 -81.609375 C 61.3125 -84.492188 60.832031 -86.941406 59.875 -88.953125 C 58.914062 -90.960938 57.765625 -92.492188 56.421875 -93.546875 C 55.078125 -94.609375 53.300781 -95.425781 51.09375 -96 C 48.882812 -96.582031 46.914062 -96.921875 45.1875 -97.015625 C 43.46875 -97.109375 41.359375 -97.15625 38.859375 -97.15625 L 35.703125 -97.15625 Z M 35.703125 -66.0625 "/></g></g></g><g fill="#000000" fill-opacity="1"><g transform="translate(92.137852, 246.689425)"><g><path d="M 7.75 -6.921875 C 7.75 -6.609375 7.703125 -6.3125 7.609375 -6.03125 C 7.523438 -5.75 7.40625 -5.488281 7.25 -5.25 C 7.09375 -5.007812 6.898438 -4.800781 6.671875 -4.625 C 6.453125 -4.445312 6.210938 -4.300781 5.953125 -4.1875 L 9.21875 0 L 6.765625 0 L 3.71875 -3.984375 L 2.765625 -3.984375 L 2.765625 0 L 0.65625 0 L 0.65625 -9.859375 L 4.90625 -9.859375 C 5.300781 -9.859375 5.671875 -9.78125 6.015625 -9.625 C 6.359375 -9.476562 6.65625 -9.269531 6.90625 -9 C 7.164062 -8.738281 7.367188 -8.425781 7.515625 -8.0625 C 7.671875 -7.707031 7.75 -7.328125 7.75 -6.921875 Z M 4.640625 -5.890625 C 4.910156 -5.890625 5.140625 -5.988281 5.328125 -6.1875 C 5.523438 -6.394531 5.625 -6.640625 5.625 -6.921875 C 5.625 -7.203125 5.523438 -7.441406 5.328125 -7.640625 C 5.140625 -7.835938 4.910156 -7.9375 4.640625 -7.9375 L 2.765625 -7.9375 L 2.765625 -5.890625 Z M 4.640625 -5.890625 "/></g></g></g><g fill="#000000" fill-opacity="1"><g transform="translate(103.595577, 246.689425)"><g><path d="M 0.671875 -9.859375 L 6.828125 -9.859375 L 6.828125 -7.9375 L 2.78125 -7.9375 L 2.78125 -6.15625 L 6.34375 -6.15625 L 6.34375 -4.234375 L 2.78125 -4.234375 L 2.78125 -1.90625 L 6.828125 -1.90625 L 6.828125 0 L 0.671875 0 Z M 0.671875 -9.859375 "/></g></g></g><g fill="#000000" fill-opacity="1"><g transform="translate(112.995446, 246.689425)"><g><path d="M 7.390625 -9.859375 L 9.5 -9.859375 L 9.5 0 L 7.5 0 L 2.75 -6.4375 L 2.75 0 L 0.65625 0 L 0.65625 -9.859375 L 2.625 -9.859375 L 7.390625 -3.375 Z M 7.390625 -9.859375 "/></g></g></g><g fill="#000000" fill-opacity="1"><g transform="translate(125.051065, 246.689425)"><g><path d="M 6.71875 -9.859375 L 10.828125 0 L 8.546875 0 L 7.65625 -2.109375 L 3.46875 -2.109375 L 2.59375 0 L 0.3125 0 L 4.421875 -9.859375 Z M 6.875 -4.03125 L 5.578125 -7.140625 L 4.28125 -4.03125 Z M 6.875 -4.03125 "/></g></g></g><g fill="#000000" fill-opacity="1"><g transform="translate(138.093894, 246.689425)"><g><path d="M 7.390625 -9.859375 L 9.5 -9.859375 L 9.5 0 L 7.5 0 L 2.75 -6.4375 L 2.75 0 L 0.65625 0 L 0.65625 -9.859375 L 2.625 -9.859375 L 7.390625 -3.375 Z M 7.390625 -9.859375 "/></g></g></g><g fill="#000000" fill-opacity="1"><g transform="translate(150.149511, 246.689425)"><g/></g></g><g fill="#000000" fill-opacity="1"><g transform="translate(155.878604, 246.689425)"><g><path d="M 9.296875 -9.859375 L 11.28125 -9.859375 L 11.28125 0 L 9.171875 0 L 9.171875 -6.515625 L 6.828125 -3.21875 L 5.140625 -3.21875 L 2.765625 -6.40625 L 2.765625 0 L 0.65625 0 L 0.65625 -9.859375 L 2.65625 -9.859375 L 6 -5.3125 Z M 9.296875 -9.859375 "/></g></g></g><g fill="#000000" fill-opacity="1"><g transform="translate(169.71399, 246.689425)"><g><path d="M 5.3125 -10 C 5.976562 -10 6.609375 -9.863281 7.203125 -9.59375 C 7.796875 -9.320312 8.3125 -8.953125 8.75 -8.484375 C 9.195312 -8.023438 9.546875 -7.488281 9.796875 -6.875 C 10.046875 -6.269531 10.171875 -5.617188 10.171875 -4.921875 C 10.171875 -4.234375 10.046875 -3.578125 9.796875 -2.953125 C 9.546875 -2.335938 9.195312 -1.796875 8.75 -1.328125 C 8.3125 -0.867188 7.796875 -0.5 7.203125 -0.21875 C 6.609375 0.0507812 5.976562 0.1875 5.3125 0.1875 C 4.644531 0.1875 4.015625 0.0507812 3.421875 -0.21875 C 2.828125 -0.5 2.3125 -0.867188 1.875 -1.328125 C 1.4375 -1.796875 1.085938 -2.335938 0.828125 -2.953125 C 0.578125 -3.578125 0.453125 -4.234375 0.453125 -4.921875 C 0.453125 -5.617188 0.578125 -6.269531 0.828125 -6.875 C 1.085938 -7.488281 1.4375 -8.023438 1.875 -8.484375 C 2.3125 -8.953125 2.828125 -9.320312 3.421875 -9.59375 C 4.015625 -9.863281 4.644531 -10 5.3125 -10 Z M 5.3125 -1.921875 C 5.6875 -1.921875 6.039062 -2 6.375 -2.15625 C 6.71875 -2.3125 7.015625 -2.523438 7.265625 -2.796875 C 7.515625 -3.078125 7.707031 -3.394531 7.84375 -3.75 C 7.988281 -4.113281 8.0625 -4.503906 8.0625 -4.921875 C 8.0625 -5.335938 7.988281 -5.726562 7.84375 -6.09375 C 7.707031 -6.457031 7.515625 -6.773438 7.265625 -7.046875 C 7.015625 -7.328125 6.71875 -7.546875 6.375 -7.703125 C 6.039062 -7.859375 5.6875 -7.9375 5.3125 -7.9375 C 4.925781 -7.9375 4.566406 -7.859375 4.234375 -7.703125 C 3.898438 -7.546875 3.609375 -7.328125 3.359375 -7.046875 C 3.109375 -6.773438 2.910156 -6.457031 2.765625 -6.09375 C 2.628906 -5.726562 2.5625 -5.335938 2.5625 -4.921875 C 2.5625 -4.503906 2.628906 -4.113281 2.765625 -3.75 C 2.910156 -3.394531 3.109375 -3.078125 3.359375 -2.796875 C 3.609375 -2.523438 3.898438 -2.3125 4.234375 -2.15625 C 4.566406 -2 4.925781 -1.921875 5.3125 -1.921875 Z M 5.3125 -1.921875 "/></g></g></g><g fill="#000000" fill-opacity="1"><g transform="translate(182.256269, 246.689425)"><g><path d="M 7.390625 -9.859375 L 9.5 -9.859375 L 9.5 0 L 7.5 0 L 2.75 -6.4375 L 2.75 0 L 0.65625 0 L 0.65625 -9.859375 L 2.625 -9.859375 L 7.390625 -3.375 Z M 7.390625 -9.859375 "/></g></g></g><g fill="#000000" fill-opacity="1"><g transform="translate(194.31189, 246.689425)"><g><path d="M 0.3125 -9.859375 L 7.453125 -9.859375 L 7.453125 -7.9375 L 4.9375 -7.9375 L 4.9375 0 L 2.84375 0 L 2.84375 -7.9375 L 0.3125 -7.9375 Z M 0.3125 -9.859375 "/></g></g></g><g fill="#000000" fill-opacity="1"><g transform="translate(203.989849, 246.689425)"><g><path d="M 0.671875 -9.859375 L 6.828125 -9.859375 L 6.828125 -7.9375 L 2.78125 -7.9375 L 2.78125 -6.15625 L 6.34375 -6.15625 L 6.34375 -4.234375 L 2.78125 -4.234375 L 2.78125 -1.90625 L 6.828125 -1.90625 L 6.828125 0 L 0.671875 0 Z M 0.671875 -9.859375 "/></g></g></g><g fill="#000000" fill-opacity="1"><g transform="translate(213.389722, 246.689425)"><g><path d="M 7.390625 -9.859375 L 9.5 -9.859375 L 9.5 0 L 7.5 0 L 2.75 -6.4375 L 2.75 0 L 0.65625 0 L 0.65625 -9.859375 L 2.625 -9.859375 L 7.390625 -3.375 Z M 7.390625 -9.859375 "/></g></g></g><g fill="#000000" fill-opacity="1"><g transform="translate(225.445343, 246.689425)"><g><path d="M 0.671875 -9.859375 L 6.828125 -9.859375 L 6.828125 -7.9375 L 2.78125 -7.9375 L 2.78125 -6.15625 L 6.34375 -6.15625 L 6.34375 -4.234375 L 2.78125 -4.234375 L 2.78125 -1.90625 L 6.828125 -1.90625 L 6.828125 0 L 0.671875 0 Z M 0.671875 -9.859375 "/></g></g></g><g fill="#000000" fill-opacity="1"><g transform="translate(234.845216, 246.689425)"><g><path d="M 5.53125 -5.578125 L 9.265625 -5.578125 L 9.265625 -1.953125 C 8.703125 -1.253906 8.082031 -0.722656 7.40625 -0.359375 C 6.726562 0.00390625 6.019531 0.1875 5.28125 0.1875 C 4.613281 0.1875 3.984375 0.0507812 3.390625 -0.21875 C 2.796875 -0.5 2.28125 -0.867188 1.84375 -1.328125 C 1.414062 -1.796875 1.070312 -2.335938 0.8125 -2.953125 C 0.5625 -3.566406 0.4375 -4.222656 0.4375 -4.921875 C 0.4375 -5.617188 0.5625 -6.269531 0.8125 -6.875 C 1.070312 -7.488281 1.414062 -8.023438 1.84375 -8.484375 C 2.28125 -8.953125 2.796875 -9.320312 3.390625 -9.59375 C 3.984375 -9.863281 4.613281 -10 5.28125 -10 C 5.914062 -10 6.507812 -9.878906 7.0625 -9.640625 C 7.625 -9.410156 8.171875 -9.03125 8.703125 -8.5 L 7.484375 -7.015625 C 7.085938 -7.367188 6.71875 -7.609375 6.375 -7.734375 C 6.039062 -7.859375 5.679688 -7.921875 5.296875 -7.921875 C 4.910156 -7.921875 4.546875 -7.84375 4.203125 -7.6875 C 3.867188 -7.53125 3.578125 -7.316406 3.328125 -7.046875 C 3.078125 -6.773438 2.878906 -6.457031 2.734375 -6.09375 C 2.585938 -5.726562 2.515625 -5.335938 2.515625 -4.921875 C 2.515625 -4.503906 2.585938 -4.113281 2.734375 -3.75 C 2.878906 -3.394531 3.078125 -3.078125 3.328125 -2.796875 C 3.578125 -2.523438 3.867188 -2.3125 4.203125 -2.15625 C 4.546875 -2 4.910156 -1.921875 5.296875 -1.921875 C 5.640625 -1.921875 5.976562 -1.984375 6.3125 -2.109375 C 6.65625 -2.234375 7 -2.4375 7.34375 -2.71875 L 7.34375 -3.796875 L 5.53125 -3.796875 Z M 5.53125 -5.578125 "/></g></g></g><g fill="#000000" fill-opacity="1"><g transform="translate(246.483704, 246.689425)"><g><path d="M 7.75 -6.921875 C 7.75 -6.609375 7.703125 -6.3125 7.609375 -6.03125 C 7.523438 -5.75 7.40625 -5.488281 7.25 -5.25 C 7.09375 -5.007812 6.898438 -4.800781 6.671875 -4.625 C 6.453125 -4.445312 6.210938 -4.300781 5.953125 -4.1875 L 9.21875 0 L 6.765625 0 L 3.71875 -3.984375 L 2.765625 -3.984375 L 2.765625 0 L 0.65625 0 L 0.65625 -9.859375 L 4.90625 -9.859375 C 5.300781 -9.859375 5.671875 -9.78125 6.015625 -9.625 C 6.359375 -9.476562 6.65625 -9.269531 6.90625 -9 C 7.164062 -8.738281 7.367188 -8.425781 7.515625 -8.0625 C 7.671875 -7.707031 7.75 -7.328125 7.75 -6.921875 Z M 4.640625 -5.890625 C 4.910156 -5.890625 5.140625 -5.988281 5.328125 -6.1875 C 5.523438 -6.394531 5.625 -6.640625 5.625 -6.921875 C 5.625 -7.203125 5.523438 -7.441406 5.328125 -7.640625 C 5.140625 -7.835938 4.910156 -7.9375 4.640625 -7.9375 L 2.765625 -7.9375 L 2.765625 -5.890625 Z M 4.640625 -5.890625 "/></g></g></g><g fill="#000000" fill-opacity="1"><g transform="translate(257.941433, 246.689425)"><g><path d="M 5.3125 -10 C 5.976562 -10 6.609375 -9.863281 7.203125 -9.59375 C 7.796875 -9.320312 8.3125 -8.953125 8.75 -8.484375 C 9.195312 -8.023438 9.546875 -7.488281 9.796875 -6.875 C 10.046875 -6.269531 10.171875 -5.617188 10.171875 -4.921875 C 10.171875 -4.234375 10.046875 -3.578125 9.796875 -2.953125 C 9.546875 -2.335938 9.195312 -1.796875 8.75 -1.328125 C 8.3125 -0.867188 7.796875 -0.5 7.203125 -0.21875 C 6.609375 0.0507812 5.976562 0.1875 5.3125 0.1875 C 4.644531 0.1875 4.015625 0.0507812 3.421875 -0.21875 C 2.828125 -0.5 2.3125 -0.867188 1.875 -1.328125 C 1.4375 -1.796875 1.085938 -2.335938 0.828125 -2.953125 C 0.578125 -3.578125 0.453125 -4.234375 0.453125 -4.921875 C 0.453125 -5.617188 0.578125 -6.269531 0.828125 -6.875 C 1.085938 -7.488281 1.4375 -8.023438 1.875 -8.484375 C 2.3125 -8.953125 2.828125 -9.320312 3.421875 -9.59375 C 4.015625 -9.863281 4.644531 -10 5.3125 -10 Z M 5.3125 -1.921875 C 5.6875 -1.921875 6.039062 -2 6.375 -2.15625 C 6.71875 -2.3125 7.015625 -2.523438 7.265625 -2.796875 C 7.515625 -3.078125 7.707031 -3.394531 7.84375 -3.75 C 7.988281 -4.113281 8.0625 -4.503906 8.0625 -4.921875 C 8.0625 -5.335938 7.988281 -5.726562 7.84375 -6.09375 C 7.707031 -6.457031 7.515625 -6.773438 7.265625 -7.046875 C 7.015625 -7.328125 6.71875 -7.546875 6.375 -7.703125 C 6.039062 -7.859375 5.6875 -7.9375 5.3125 -7.9375 C 4.925781 -7.9375 4.566406 -7.859375 4.234375 -7.703125 C 3.898438 -7.546875 3.609375 -7.328125 3.359375 -7.046875 C 3.109375 -6.773438 2.910156 -6.457031 2.765625 -6.09375 C 2.628906 -5.726562 2.5625 -5.335938 2.5625 -4.921875 C 2.5625 -4.503906 2.628906 -4.113281 2.765625 -3.75 C 2.910156 -3.394531 3.109375 -3.078125 3.359375 -2.796875 C 3.609375 -2.523438 3.898438 -2.3125 4.234375 -2.15625 C 4.566406 -2 4.925781 -1.921875 5.3125 -1.921875 Z M 5.3125 -1.921875 "/></g></g></g><g fill="#000000" fill-opacity="1"><g transform="translate(270.483702, 246.689425)"><g/></g></g><g fill="#000000" fill-opacity="1"><g transform="translate(276.2128, 246.689425)"><g><path d="M 6.296875 -9.859375 L 6.296875 -3.53125 C 6.296875 -3.125 6.269531 -2.734375 6.21875 -2.359375 C 6.164062 -1.984375 6.015625 -1.617188 5.765625 -1.265625 C 5.453125 -0.804688 5.066406 -0.460938 4.609375 -0.234375 C 4.148438 -0.015625 3.65625 0.09375 3.125 0.09375 C 2.769531 0.09375 2.429688 0.0351562 2.109375 -0.078125 C 1.785156 -0.203125 1.488281 -0.367188 1.21875 -0.578125 C 0.957031 -0.785156 0.726562 -1.03125 0.53125 -1.3125 C 0.34375 -1.59375 0.195312 -1.894531 0.09375 -2.21875 L 1.921875 -2.84375 C 1.992188 -2.570312 2.132812 -2.347656 2.34375 -2.171875 C 2.550781 -1.992188 2.796875 -1.90625 3.078125 -1.90625 C 3.398438 -1.90625 3.648438 -2.015625 3.828125 -2.234375 C 4.015625 -2.453125 4.128906 -2.695312 4.171875 -2.96875 C 4.171875 -3.007812 4.171875 -3.140625 4.171875 -3.359375 C 4.179688 -3.585938 4.1875 -3.863281 4.1875 -4.1875 C 4.1875 -4.519531 4.1875 -4.890625 4.1875 -5.296875 C 4.1875 -5.710938 4.1875 -6.128906 4.1875 -6.546875 C 4.1875 -7.535156 4.179688 -8.640625 4.171875 -9.859375 Z M 6.296875 -9.859375 "/></g></g></g><g fill="#000000" fill-opacity="1"><g transform="translate(285.042575, 246.689425)"><g><path d="M 7.75 -6.921875 C 7.75 -6.609375 7.703125 -6.3125 7.609375 -6.03125 C 7.523438 -5.75 7.40625 -5.488281 7.25 -5.25 C 7.09375 -5.007812 6.898438 -4.800781 6.671875 -4.625 C 6.453125 -4.445312 6.210938 -4.300781 5.953125 -4.1875 L 9.21875 0 L 6.765625 0 L 3.71875 -3.984375 L 2.765625 -3.984375 L 2.765625 0 L 0.65625 0 L 0.65625 -9.859375 L 4.90625 -9.859375 C 5.300781 -9.859375 5.671875 -9.78125 6.015625 -9.625 C 6.359375 -9.476562 6.65625 -9.269531 6.90625 -9 C 7.164062 -8.738281 7.367188 -8.425781 7.515625 -8.0625 C 7.671875 -7.707031 7.75 -7.328125 7.75 -6.921875 Z M 4.640625 -5.890625 C 4.910156 -5.890625 5.140625 -5.988281 5.328125 -6.1875 C 5.523438 -6.394531 5.625 -6.640625 5.625 -6.921875 C 5.625 -7.203125 5.523438 -7.441406 5.328125 -7.640625 C 5.140625 -7.835938 4.910156 -7.9375 4.640625 -7.9375 L 2.765625 -7.9375 L 2.765625 -5.890625 Z M 4.640625 -5.890625 "/></g></g></g><g fill="#000000" fill-opacity="1"><g transform="translate(296.500293, 246.689425)"><g><path d="M 1.71875 -2 C 2.019531 -2 2.273438 -1.894531 2.484375 -1.6875 C 2.691406 -1.488281 2.796875 -1.242188 2.796875 -0.953125 C 2.796875 -0.648438 2.691406 -0.394531 2.484375 -0.1875 C 2.273438 0.0078125 2.019531 0.109375 1.71875 0.109375 C 1.425781 0.109375 1.175781 0.0078125 0.96875 -0.1875 C 0.769531 -0.394531 0.671875 -0.648438 0.671875 -0.953125 C 0.671875 -1.242188 0.769531 -1.488281 0.96875 -1.6875 C 1.175781 -1.894531 1.425781 -2 1.71875 -2 Z M 1.71875 -2 "/></g></g></g><g fill="#373737" fill-opacity="1"><g transform="translate(175.126811, 262.550775)"><g><path d="M 4.171875 -4.46875 L 4.828125 -4.46875 L 4.828125 0 L 4.171875 0 L 4.171875 -3.4375 L 2.859375 -1.640625 L 2.359375 -1.640625 L 1.046875 -3.4375 L 1.046875 0 L 0.375 0 L 0.375 -4.46875 L 1.046875 -4.46875 L 2.609375 -2.328125 Z M 4.171875 -4.46875 "/></g></g></g><g fill="#373737" fill-opacity="1"><g transform="translate(183.779772, 262.550775)"><g><path d="M 3.09375 -4.46875 L 3.09375 -3.875 L 1.015625 -3.875 L 1.015625 -2.65625 L 2.859375 -2.65625 L 2.859375 -2.046875 L 1.015625 -2.046875 L 1.015625 -0.609375 L 3.09375 -0.609375 L 3.09375 0 L 0.359375 0 L 0.359375 -4.46875 Z M 2.15625 -5.890625 L 1.796875 -4.78125 L 1.3125 -4.78125 L 1.453125 -5.890625 Z M 2.15625 -5.890625 "/></g></g></g><g fill="#373737" fill-opacity="1"><g transform="translate(190.689502, 262.550775)"><g><path d="M 0.375 0 L 0.375 -4.46875 L 1.96875 -4.46875 C 2.289062 -4.46875 2.578125 -4.410156 2.828125 -4.296875 C 3.078125 -4.179688 3.285156 -4.019531 3.453125 -3.8125 C 3.617188 -3.613281 3.742188 -3.378906 3.828125 -3.109375 C 3.910156 -2.835938 3.953125 -2.546875 3.953125 -2.234375 C 3.953125 -1.921875 3.90625 -1.628906 3.8125 -1.359375 C 3.726562 -1.085938 3.601562 -0.847656 3.4375 -0.640625 C 3.28125 -0.441406 3.09375 -0.285156 2.875 -0.171875 C 2.65625 -0.0546875 2.421875 0 2.171875 0 Z M 1.9375 -0.609375 C 2.175781 -0.609375 2.378906 -0.648438 2.546875 -0.734375 C 2.722656 -0.828125 2.863281 -0.945312 2.96875 -1.09375 C 3.082031 -1.238281 3.160156 -1.410156 3.203125 -1.609375 C 3.253906 -1.804688 3.28125 -2.015625 3.28125 -2.234375 C 3.28125 -2.453125 3.253906 -2.660156 3.203125 -2.859375 C 3.160156 -3.054688 3.082031 -3.226562 2.96875 -3.375 C 2.863281 -3.53125 2.722656 -3.648438 2.546875 -3.734375 C 2.378906 -3.828125 2.175781 -3.875 1.9375 -3.875 L 1.046875 -3.875 L 1.046875 -0.609375 Z M 1.9375 -0.609375 "/></g></g></g><g fill="#373737" fill-opacity="1"><g transform="translate(198.414007, 262.550775)"><g><path d="M 1.5625 -3.9375 L 1.5625 -0.546875 L 1.890625 -0.546875 L 1.890625 0 L 0.578125 0 L 0.578125 -0.546875 L 0.90625 -0.546875 L 0.90625 -3.9375 L 0.578125 -3.9375 L 0.578125 -4.46875 L 1.890625 -4.46875 L 1.890625 -3.9375 Z M 1.5625 -3.9375 "/></g></g></g><g fill="#373737" fill-opacity="1"><g transform="translate(204.338436, 262.550775)"><g><path d="M 2.46875 -0.546875 C 2.707031 -0.546875 2.929688 -0.601562 3.140625 -0.71875 C 3.347656 -0.84375 3.523438 -1 3.671875 -1.1875 L 4.125 -0.75 C 3.925781 -0.507812 3.679688 -0.3125 3.390625 -0.15625 C 3.097656 -0.0078125 2.789062 0.0625 2.46875 0.0625 C 2.15625 0.0625 1.863281 0.00390625 1.59375 -0.109375 C 1.332031 -0.234375 1.101562 -0.398438 0.90625 -0.609375 C 0.707031 -0.816406 0.550781 -1.0625 0.4375 -1.34375 C 0.320312 -1.625 0.265625 -1.921875 0.265625 -2.234375 C 0.265625 -2.546875 0.320312 -2.84375 0.4375 -3.125 C 0.550781 -3.40625 0.707031 -3.648438 0.90625 -3.859375 C 1.101562 -4.066406 1.332031 -4.226562 1.59375 -4.34375 C 1.863281 -4.46875 2.15625 -4.53125 2.46875 -4.53125 C 2.75 -4.53125 3.015625 -4.472656 3.265625 -4.359375 C 3.515625 -4.253906 3.738281 -4.109375 3.9375 -3.921875 L 3.546875 -3.421875 C 3.398438 -3.578125 3.234375 -3.703125 3.046875 -3.796875 C 2.867188 -3.890625 2.675781 -3.9375 2.46875 -3.9375 C 2.25 -3.9375 2.046875 -3.890625 1.859375 -3.796875 C 1.671875 -3.703125 1.503906 -3.578125 1.359375 -3.421875 C 1.222656 -3.265625 1.113281 -3.082031 1.03125 -2.875 C 0.957031 -2.675781 0.921875 -2.460938 0.921875 -2.234375 C 0.921875 -2.003906 0.957031 -1.785156 1.03125 -1.578125 C 1.113281 -1.378906 1.222656 -1.203125 1.359375 -1.046875 C 1.503906 -0.890625 1.671875 -0.765625 1.859375 -0.671875 C 2.046875 -0.585938 2.25 -0.546875 2.46875 -0.546875 Z M 2.46875 -0.546875 "/></g></g></g><g fill="#373737" fill-opacity="1"><g transform="translate(212.113465, 262.550775)"><g><path d="M 2.4375 -4.53125 C 2.738281 -4.53125 3.019531 -4.46875 3.28125 -4.34375 C 3.550781 -4.226562 3.785156 -4.066406 3.984375 -3.859375 C 4.191406 -3.648438 4.351562 -3.40625 4.46875 -3.125 C 4.582031 -2.84375 4.640625 -2.546875 4.640625 -2.234375 C 4.640625 -1.921875 4.582031 -1.625 4.46875 -1.34375 C 4.351562 -1.070312 4.191406 -0.832031 3.984375 -0.625 C 3.785156 -0.414062 3.550781 -0.25 3.28125 -0.125 C 3.007812 0 2.722656 0.0625 2.421875 0.0625 C 2.117188 0.0625 1.832031 0 1.5625 -0.125 C 1.289062 -0.25 1.054688 -0.414062 0.859375 -0.625 C 0.660156 -0.832031 0.503906 -1.070312 0.390625 -1.34375 C 0.273438 -1.625 0.21875 -1.921875 0.21875 -2.234375 C 0.21875 -2.546875 0.273438 -2.84375 0.390625 -3.125 C 0.503906 -3.40625 0.660156 -3.648438 0.859375 -3.859375 C 1.066406 -4.066406 1.300781 -4.226562 1.5625 -4.34375 C 1.832031 -4.46875 2.125 -4.53125 2.4375 -4.53125 Z M 2.4375 -0.5625 C 2.644531 -0.5625 2.84375 -0.601562 3.03125 -0.6875 C 3.21875 -0.78125 3.378906 -0.898438 3.515625 -1.046875 C 3.660156 -1.203125 3.769531 -1.378906 3.84375 -1.578125 C 3.925781 -1.785156 3.96875 -2.003906 3.96875 -2.234375 C 3.96875 -2.472656 3.925781 -2.691406 3.84375 -2.890625 C 3.769531 -3.085938 3.660156 -3.265625 3.515625 -3.421875 C 3.378906 -3.578125 3.21875 -3.695312 3.03125 -3.78125 C 2.84375 -3.863281 2.644531 -3.90625 2.4375 -3.90625 C 2.21875 -3.90625 2.015625 -3.863281 1.828125 -3.78125 C 1.640625 -3.695312 1.472656 -3.578125 1.328125 -3.421875 C 1.191406 -3.265625 1.082031 -3.085938 1 -2.890625 C 0.925781 -2.691406 0.890625 -2.472656 0.890625 -2.234375 C 0.890625 -2.003906 0.925781 -1.785156 1 -1.578125 C 1.082031 -1.378906 1.191406 -1.203125 1.328125 -1.046875 C 1.472656 -0.898438 1.640625 -0.78125 1.828125 -0.6875 C 2.015625 -0.601562 2.21875 -0.5625 2.4375 -0.5625 Z M 2.4375 -0.5625 "/></g></g></g><g fill="#373737" fill-opacity="1"><g transform="translate(138.135432, 270.972111)"><g><path d="M 3.09375 -4.46875 L 3.09375 -3.875 L 1.015625 -3.875 L 1.015625 -2.65625 L 2.859375 -2.65625 L 2.859375 -2.046875 L 1.015625 -2.046875 L 1.015625 -0.609375 L 3.09375 -0.609375 L 3.09375 0 L 0.359375 0 L 0.359375 -4.46875 Z M 3.09375 -4.46875 "/></g></g></g><g fill="#373737" fill-opacity="1"><g transform="translate(145.045161, 270.972111)"><g><path d="M 4.203125 -4.46875 L 4.203125 0 L 3.546875 0 L 1.046875 -3.4375 L 1.046875 0 L 0.359375 0 L 0.359375 -4.46875 L 1.046875 -4.46875 L 3.546875 -1.015625 L 3.546875 -4.46875 Z M 4.203125 -4.46875 "/></g></g></g><g fill="#373737" fill-opacity="1"><g transform="translate(153.066515, 270.972111)"><g><path d="M 0.375 0 L 0.375 -4.46875 L 1.96875 -4.46875 C 2.289062 -4.46875 2.578125 -4.410156 2.828125 -4.296875 C 3.078125 -4.179688 3.285156 -4.019531 3.453125 -3.8125 C 3.617188 -3.613281 3.742188 -3.378906 3.828125 -3.109375 C 3.910156 -2.835938 3.953125 -2.546875 3.953125 -2.234375 C 3.953125 -1.921875 3.90625 -1.628906 3.8125 -1.359375 C 3.726562 -1.085938 3.601562 -0.847656 3.4375 -0.640625 C 3.28125 -0.441406 3.09375 -0.285156 2.875 -0.171875 C 2.65625 -0.0546875 2.421875 0 2.171875 0 Z M 1.9375 -0.609375 C 2.175781 -0.609375 2.378906 -0.648438 2.546875 -0.734375 C 2.722656 -0.828125 2.863281 -0.945312 2.96875 -1.09375 C 3.082031 -1.238281 3.160156 -1.410156 3.203125 -1.609375 C 3.253906 -1.804688 3.28125 -2.015625 3.28125 -2.234375 C 3.28125 -2.453125 3.253906 -2.660156 3.203125 -2.859375 C 3.160156 -3.054688 3.082031 -3.226562 2.96875 -3.375 C 2.863281 -3.53125 2.722656 -3.648438 2.546875 -3.734375 C 2.378906 -3.828125 2.175781 -3.875 1.9375 -3.875 L 1.046875 -3.875 L 1.046875 -0.609375 Z M 1.9375 -0.609375 "/></g></g></g><g fill="#373737" fill-opacity="1"><g transform="translate(160.791018, 270.972111)"><g><path d="M 2.4375 -4.53125 C 2.738281 -4.53125 3.019531 -4.46875 3.28125 -4.34375 C 3.550781 -4.226562 3.785156 -4.066406 3.984375 -3.859375 C 4.191406 -3.648438 4.351562 -3.40625 4.46875 -3.125 C 4.582031 -2.84375 4.640625 -2.546875 4.640625 -2.234375 C 4.640625 -1.921875 4.582031 -1.625 4.46875 -1.34375 C 4.351562 -1.070312 4.191406 -0.832031 3.984375 -0.625 C 3.785156 -0.414062 3.550781 -0.25 3.28125 -0.125 C 3.007812 0 2.722656 0.0625 2.421875 0.0625 C 2.117188 0.0625 1.832031 0 1.5625 -0.125 C 1.289062 -0.25 1.054688 -0.414062 0.859375 -0.625 C 0.660156 -0.832031 0.503906 -1.070312 0.390625 -1.34375 C 0.273438 -1.625 0.21875 -1.921875 0.21875 -2.234375 C 0.21875 -2.546875 0.273438 -2.84375 0.390625 -3.125 C 0.503906 -3.40625 0.660156 -3.648438 0.859375 -3.859375 C 1.066406 -4.066406 1.300781 -4.226562 1.5625 -4.34375 C 1.832031 -4.46875 2.125 -4.53125 2.4375 -4.53125 Z M 2.4375 -0.5625 C 2.644531 -0.5625 2.84375 -0.601562 3.03125 -0.6875 C 3.21875 -0.78125 3.378906 -0.898438 3.515625 -1.046875 C 3.660156 -1.203125 3.769531 -1.378906 3.84375 -1.578125 C 3.925781 -1.785156 3.96875 -2.003906 3.96875 -2.234375 C 3.96875 -2.472656 3.925781 -2.691406 3.84375 -2.890625 C 3.769531 -3.085938 3.660156 -3.265625 3.515625 -3.421875 C 3.378906 -3.578125 3.21875 -3.695312 3.03125 -3.78125 C 2.84375 -3.863281 2.644531 -3.90625 2.4375 -3.90625 C 2.21875 -3.90625 2.015625 -3.863281 1.828125 -3.78125 C 1.640625 -3.695312 1.472656 -3.578125 1.328125 -3.421875 C 1.191406 -3.265625 1.082031 -3.085938 1 -2.890625 C 0.925781 -2.691406 0.890625 -2.472656 0.890625 -2.234375 C 0.890625 -2.003906 0.925781 -1.785156 1 -1.578125 C 1.082031 -1.378906 1.191406 -1.203125 1.328125 -1.046875 C 1.472656 -0.898438 1.640625 -0.78125 1.828125 -0.6875 C 2.015625 -0.601562 2.21875 -0.5625 2.4375 -0.5625 Z M 2.4375 -0.5625 "/></g></g></g><g fill="#373737" fill-opacity="1"><g transform="translate(169.077652, 270.972111)"><g><path d="M 2.46875 -0.546875 C 2.707031 -0.546875 2.929688 -0.601562 3.140625 -0.71875 C 3.347656 -0.84375 3.523438 -1 3.671875 -1.1875 L 4.125 -0.75 C 3.925781 -0.507812 3.679688 -0.3125 3.390625 -0.15625 C 3.097656 -0.0078125 2.789062 0.0625 2.46875 0.0625 C 2.15625 0.0625 1.863281 0.00390625 1.59375 -0.109375 C 1.332031 -0.234375 1.101562 -0.398438 0.90625 -0.609375 C 0.707031 -0.816406 0.550781 -1.0625 0.4375 -1.34375 C 0.320312 -1.625 0.265625 -1.921875 0.265625 -2.234375 C 0.265625 -2.546875 0.320312 -2.84375 0.4375 -3.125 C 0.550781 -3.40625 0.707031 -3.648438 0.90625 -3.859375 C 1.101562 -4.066406 1.332031 -4.226562 1.59375 -4.34375 C 1.863281 -4.46875 2.15625 -4.53125 2.46875 -4.53125 C 2.75 -4.53125 3.015625 -4.472656 3.265625 -4.359375 C 3.515625 -4.253906 3.738281 -4.109375 3.9375 -3.921875 L 3.546875 -3.421875 C 3.398438 -3.578125 3.234375 -3.703125 3.046875 -3.796875 C 2.867188 -3.890625 2.675781 -3.9375 2.46875 -3.9375 C 2.25 -3.9375 2.046875 -3.890625 1.859375 -3.796875 C 1.671875 -3.703125 1.503906 -3.578125 1.359375 -3.421875 C 1.222656 -3.265625 1.113281 -3.082031 1.03125 -2.875 C 0.957031 -2.675781 0.921875 -2.460938 0.921875 -2.234375 C 0.921875 -2.003906 0.957031 -1.785156 1.03125 -1.578125 C 1.113281 -1.378906 1.222656 -1.203125 1.359375 -1.046875 C 1.503906 -0.890625 1.671875 -0.765625 1.859375 -0.671875 C 2.046875 -0.585938 2.25 -0.546875 2.46875 -0.546875 Z M 2.46875 -0.546875 "/></g></g></g><g fill="#373737" fill-opacity="1"><g transform="translate(176.852679, 270.972111)"><g><path d="M 4.046875 0 L 3.21875 0 L 1.8125 -1.9375 L 1.03125 -1.9375 L 1.03125 0 L 0.359375 0 L 0.359375 -4.46875 L 2.1875 -4.46875 C 2.363281 -4.46875 2.53125 -4.4375 2.6875 -4.375 C 2.84375 -4.3125 2.976562 -4.222656 3.09375 -4.109375 C 3.207031 -3.992188 3.296875 -3.859375 3.359375 -3.703125 C 3.429688 -3.546875 3.46875 -3.378906 3.46875 -3.203125 C 3.46875 -3.054688 3.441406 -2.914062 3.390625 -2.78125 C 3.347656 -2.65625 3.285156 -2.539062 3.203125 -2.4375 C 3.128906 -2.332031 3.035156 -2.238281 2.921875 -2.15625 C 2.804688 -2.082031 2.679688 -2.023438 2.546875 -1.984375 Z M 2.1875 -2.546875 C 2.269531 -2.546875 2.351562 -2.5625 2.4375 -2.59375 C 2.519531 -2.632812 2.585938 -2.679688 2.640625 -2.734375 C 2.703125 -2.796875 2.75 -2.867188 2.78125 -2.953125 C 2.8125 -3.035156 2.828125 -3.125 2.828125 -3.21875 C 2.828125 -3.3125 2.8125 -3.394531 2.78125 -3.46875 C 2.75 -3.550781 2.703125 -3.625 2.640625 -3.6875 C 2.585938 -3.75 2.519531 -3.796875 2.4375 -3.828125 C 2.351562 -3.867188 2.269531 -3.890625 2.1875 -3.890625 L 1.03125 -3.890625 L 1.03125 -2.546875 Z M 2.1875 -2.546875 "/></g></g></g><g fill="#373737" fill-opacity="1"><g transform="translate(184.438227, 270.972111)"><g><path d="M 1.5625 -3.9375 L 1.5625 -0.546875 L 1.890625 -0.546875 L 1.890625 0 L 0.578125 0 L 0.578125 -0.546875 L 0.90625 -0.546875 L 0.90625 -3.9375 L 0.578125 -3.9375 L 0.578125 -4.46875 L 1.890625 -4.46875 L 1.890625 -3.9375 Z M 1.5625 -3.9375 "/></g></g></g><g fill="#373737" fill-opacity="1"><g transform="translate(190.362656, 270.972111)"><g><path d="M 4.203125 -4.46875 L 4.203125 0 L 3.546875 0 L 1.046875 -3.4375 L 1.046875 0 L 0.359375 0 L 0.359375 -4.46875 L 1.046875 -4.46875 L 3.546875 -1.015625 L 3.546875 -4.46875 Z M 4.203125 -4.46875 "/></g></g></g><g fill="#373737" fill-opacity="1"><g transform="translate(198.38401, 270.972111)"><g><path d="M 2.4375 -4.53125 C 2.738281 -4.53125 3.019531 -4.46875 3.28125 -4.34375 C 3.550781 -4.226562 3.785156 -4.066406 3.984375 -3.859375 C 4.191406 -3.648438 4.351562 -3.40625 4.46875 -3.125 C 4.582031 -2.84375 4.640625 -2.546875 4.640625 -2.234375 C 4.640625 -1.921875 4.582031 -1.625 4.46875 -1.34375 C 4.351562 -1.070312 4.191406 -0.832031 3.984375 -0.625 C 3.785156 -0.414062 3.550781 -0.25 3.28125 -0.125 C 3.007812 0 2.722656 0.0625 2.421875 0.0625 C 2.117188 0.0625 1.832031 0 1.5625 -0.125 C 1.289062 -0.25 1.054688 -0.414062 0.859375 -0.625 C 0.660156 -0.832031 0.503906 -1.070312 0.390625 -1.34375 C 0.273438 -1.625 0.21875 -1.921875 0.21875 -2.234375 C 0.21875 -2.546875 0.273438 -2.84375 0.390625 -3.125 C 0.503906 -3.40625 0.660156 -3.648438 0.859375 -3.859375 C 1.066406 -4.066406 1.300781 -4.226562 1.5625 -4.34375 C 1.832031 -4.46875 2.125 -4.53125 2.4375 -4.53125 Z M 2.4375 -0.5625 C 2.644531 -0.5625 2.84375 -0.601562 3.03125 -0.6875 C 3.21875 -0.78125 3.378906 -0.898438 3.515625 -1.046875 C 3.660156 -1.203125 3.769531 -1.378906 3.84375 -1.578125 C 3.925781 -1.785156 3.96875 -2.003906 3.96875 -2.234375 C 3.96875 -2.472656 3.925781 -2.691406 3.84375 -2.890625 C 3.769531 -3.085938 3.660156 -3.265625 3.515625 -3.421875 C 3.378906 -3.578125 3.21875 -3.695312 3.03125 -3.78125 C 2.84375 -3.863281 2.644531 -3.90625 2.4375 -3.90625 C 2.21875 -3.90625 2.015625 -3.863281 1.828125 -3.78125 C 1.640625 -3.695312 1.472656 -3.578125 1.328125 -3.421875 C 1.191406 -3.265625 1.082031 -3.085938 1 -2.890625 C 0.925781 -2.691406 0.890625 -2.472656 0.890625 -2.234375 C 0.890625 -2.003906 0.925781 -1.785156 1 -1.578125 C 1.082031 -1.378906 1.191406 -1.203125 1.328125 -1.046875 C 1.472656 -0.898438 1.640625 -0.78125 1.828125 -0.6875 C 2.015625 -0.601562 2.21875 -0.5625 2.4375 -0.5625 Z M 2.4375 -0.5625 "/></g></g></g><g fill="#373737" fill-opacity="1"><g transform="translate(206.670644, 270.972111)"><g><path d="M 0.375 0 L 0.375 -4.46875 L 1.03125 -4.46875 L 1.03125 -0.609375 L 3.109375 -0.609375 L 3.109375 0 Z M 0.375 0 "/></g></g></g><g fill="#373737" fill-opacity="1"><g transform="translate(213.35299, 270.972111)"><g><path d="M 2.4375 -4.53125 C 2.738281 -4.53125 3.019531 -4.46875 3.28125 -4.34375 C 3.550781 -4.226562 3.785156 -4.066406 3.984375 -3.859375 C 4.191406 -3.648438 4.351562 -3.40625 4.46875 -3.125 C 4.582031 -2.84375 4.640625 -2.546875 4.640625 -2.234375 C 4.640625 -1.921875 4.582031 -1.625 4.46875 -1.34375 C 4.351562 -1.070312 4.191406 -0.832031 3.984375 -0.625 C 3.785156 -0.414062 3.550781 -0.25 3.28125 -0.125 C 3.007812 0 2.722656 0.0625 2.421875 0.0625 C 2.117188 0.0625 1.832031 0 1.5625 -0.125 C 1.289062 -0.25 1.054688 -0.414062 0.859375 -0.625 C 0.660156 -0.832031 0.503906 -1.070312 0.390625 -1.34375 C 0.273438 -1.625 0.21875 -1.921875 0.21875 -2.234375 C 0.21875 -2.546875 0.273438 -2.84375 0.390625 -3.125 C 0.503906 -3.40625 0.660156 -3.648438 0.859375 -3.859375 C 1.066406 -4.066406 1.300781 -4.226562 1.5625 -4.34375 C 1.832031 -4.46875 2.125 -4.53125 2.4375 -4.53125 Z M 2.4375 -0.5625 C 2.644531 -0.5625 2.84375 -0.601562 3.03125 -0.6875 C 3.21875 -0.78125 3.378906 -0.898438 3.515625 -1.046875 C 3.660156 -1.203125 3.769531 -1.378906 3.84375 -1.578125 C 3.925781 -1.785156 3.96875 -2.003906 3.96875 -2.234375 C 3.96875 -2.472656 3.925781 -2.691406 3.84375 -2.890625 C 3.769531 -3.085938 3.660156 -3.265625 3.515625 -3.421875 C 3.378906 -3.578125 3.21875 -3.695312 3.03125 -3.78125 C 2.84375 -3.863281 2.644531 -3.90625 2.4375 -3.90625 C 2.21875 -3.90625 2.015625 -3.863281 1.828125 -3.78125 C 1.640625 -3.695312 1.472656 -3.578125 1.328125 -3.421875 C 1.191406 -3.265625 1.082031 -3.085938 1 -2.890625 C 0.925781 -2.691406 0.890625 -2.472656 0.890625 -2.234375 C 0.890625 -2.003906 0.925781 -1.785156 1 -1.578125 C 1.082031 -1.378906 1.191406 -1.203125 1.328125 -1.046875 C 1.472656 -0.898438 1.640625 -0.78125 1.828125 -0.6875 C 2.015625 -0.601562 2.21875 -0.5625 2.4375 -0.5625 Z M 2.4375 -0.5625 "/></g></g></g><g fill="#373737" fill-opacity="1"><g transform="translate(221.639619, 270.972111)"><g><path d="M 2.859375 -2.390625 L 4.078125 -2.390625 L 4.078125 -0.75 C 3.867188 -0.507812 3.617188 -0.3125 3.328125 -0.15625 C 3.046875 -0.0078125 2.738281 0.0625 2.40625 0.0625 C 2.101562 0.0625 1.816406 0.00390625 1.546875 -0.109375 C 1.273438 -0.234375 1.039062 -0.398438 0.84375 -0.609375 C 0.644531 -0.816406 0.488281 -1.0625 0.375 -1.34375 C 0.257812 -1.625 0.203125 -1.921875 0.203125 -2.234375 C 0.203125 -2.546875 0.257812 -2.84375 0.375 -3.125 C 0.488281 -3.40625 0.644531 -3.648438 0.84375 -3.859375 C 1.039062 -4.066406 1.273438 -4.226562 1.546875 -4.34375 C 1.816406 -4.46875 2.101562 -4.53125 2.40625 -4.53125 C 2.6875 -4.53125 2.945312 -4.472656 3.1875 -4.359375 C 3.4375 -4.253906 3.660156 -4.113281 3.859375 -3.9375 L 3.46875 -3.4375 C 3.332031 -3.582031 3.171875 -3.703125 2.984375 -3.796875 C 2.804688 -3.890625 2.613281 -3.9375 2.40625 -3.9375 C 2.1875 -3.9375 1.984375 -3.890625 1.796875 -3.796875 C 1.609375 -3.703125 1.445312 -3.578125 1.3125 -3.421875 C 1.175781 -3.265625 1.066406 -3.082031 0.984375 -2.875 C 0.898438 -2.675781 0.859375 -2.460938 0.859375 -2.234375 C 0.859375 -2.003906 0.898438 -1.785156 0.984375 -1.578125 C 1.066406 -1.378906 1.175781 -1.203125 1.3125 -1.046875 C 1.445312 -0.890625 1.609375 -0.765625 1.796875 -0.671875 C 1.984375 -0.585938 2.1875 -0.546875 2.40625 -0.546875 C 2.601562 -0.546875 2.785156 -0.582031 2.953125 -0.65625 C 3.128906 -0.738281 3.285156 -0.847656 3.421875 -0.984375 L 3.421875 -1.78125 L 2.859375 -1.78125 Z M 2.859375 -2.390625 "/></g></g></g><g fill="#373737" fill-opacity="1"><g transform="translate(229.566233, 270.972111)"><g><path d="M 1.5625 -3.9375 L 1.5625 -0.546875 L 1.890625 -0.546875 L 1.890625 0 L 0.578125 0 L 0.578125 -0.546875 L 0.90625 -0.546875 L 0.90625 -3.9375 L 0.578125 -3.9375 L 0.578125 -4.46875 L 1.890625 -4.46875 L 1.890625 -3.9375 Z M 1.5625 -3.9375 "/></g></g></g><g fill="#373737" fill-opacity="1"><g transform="translate(235.490658, 270.972111)"><g><path d="M 3.34375 -1.25 C 3.34375 -1.0625 3.300781 -0.882812 3.21875 -0.71875 C 3.144531 -0.5625 3.035156 -0.421875 2.890625 -0.296875 C 2.597656 -0.0546875 2.226562 0.0625 1.78125 0.0625 C 1.425781 0.0625 1.101562 -0.0078125 0.8125 -0.15625 C 0.53125 -0.300781 0.320312 -0.492188 0.1875 -0.734375 L 0.75 -1.03125 C 0.832031 -0.875 0.960938 -0.753906 1.140625 -0.671875 C 1.328125 -0.597656 1.539062 -0.5625 1.78125 -0.5625 C 2.382812 -0.5625 2.6875 -0.789062 2.6875 -1.25 C 2.6875 -1.34375 2.671875 -1.421875 2.640625 -1.484375 C 2.609375 -1.546875 2.5625 -1.601562 2.5 -1.65625 C 2.34375 -1.78125 2.070312 -1.894531 1.6875 -2 C 1.445312 -2.0625 1.242188 -2.125 1.078125 -2.1875 C 0.921875 -2.257812 0.785156 -2.347656 0.671875 -2.453125 C 0.410156 -2.660156 0.28125 -2.941406 0.28125 -3.296875 C 0.28125 -3.472656 0.3125 -3.640625 0.375 -3.796875 C 0.445312 -3.953125 0.546875 -4.085938 0.671875 -4.203125 C 0.804688 -4.316406 0.957031 -4.398438 1.125 -4.453125 C 1.300781 -4.503906 1.492188 -4.53125 1.703125 -4.53125 C 2.015625 -4.53125 2.300781 -4.472656 2.5625 -4.359375 C 2.820312 -4.242188 3.019531 -4.078125 3.15625 -3.859375 L 2.640625 -3.546875 C 2.515625 -3.691406 2.367188 -3.796875 2.203125 -3.859375 C 2.046875 -3.921875 1.878906 -3.953125 1.703125 -3.953125 C 1.578125 -3.953125 1.460938 -3.929688 1.359375 -3.890625 C 1.253906 -3.847656 1.164062 -3.796875 1.09375 -3.734375 C 1.039062 -3.679688 1 -3.617188 0.96875 -3.546875 C 0.9375 -3.472656 0.921875 -3.394531 0.921875 -3.3125 C 0.921875 -3.257812 0.929688 -3.203125 0.953125 -3.140625 C 0.972656 -3.085938 1.015625 -3.03125 1.078125 -2.96875 C 1.140625 -2.90625 1.226562 -2.84375 1.34375 -2.78125 C 1.46875 -2.726562 1.632812 -2.675781 1.84375 -2.625 C 2.101562 -2.5625 2.316406 -2.492188 2.484375 -2.421875 C 2.660156 -2.347656 2.804688 -2.257812 2.921875 -2.15625 C 3.203125 -1.925781 3.34375 -1.625 3.34375 -1.25 Z M 3.34375 -1.25 "/></g></g></g><g fill="#373737" fill-opacity="1"><g transform="translate(242.596185, 270.972111)"><g><path d="M 1.25 -3.875 L 0.03125 -3.875 L 0.03125 -4.46875 L 3.125 -4.46875 L 3.125 -3.875 L 1.90625 -3.875 L 1.90625 0 L 1.25 0 Z M 1.25 -3.875 "/></g></g></g><g fill="#373737" fill-opacity="1"><g transform="translate(249.335377, 270.972111)"><g><path d="M 0.796875 0 L 0.0625 0 L 1.9375 -4.46875 L 2.65625 -4.46875 L 4.515625 0 L 3.8125 0 L 3.21875 -1.40625 L 1.375 -1.40625 Z M 1.625 -2 L 2.96875 -2 L 2.296875 -3.625 Z M 1.625 -2 "/></g></g></g></svg>